<svg width="128" height="128" viewBox="0 0 128 128" fill="none" xmlns="http://www.w3.org/2000/svg">
  <rect x="18" y="48" width="92" height="62" rx="8" fill="#3B82F6"/>
  <rect x="18" y="48" width="92" height="62" rx="8" fill="url(#paint0_linear)"/>
  <rect x="58" y="48" width="12" height="62" fill="#F7C948"/>
  <rect x="14" y="36" width="100" height="22" rx="7" fill="#8B5CF6"/>
  <rect x="14" y="36" width="100" height="22" rx="7" fill="url(#paint1_linear)"/>
  <rect x="56" y="36" width="16" height="74" fill="#FFE083"/>
  <path d="M62 35C50 24 39 20 33 26C27 32 32 43 47 43H62V35Z" fill="#F7C948"/>
  <path d="M66 35C78 24 89 20 95 26C101 32 96 43 81 43H66V35Z" fill="#F7C948"/>
  <path d="M47 43C34 42 31 34 35 30C39 26 48 30 62 43H47Z" fill="#FFE083"/>
  <path d="M81 43C94 42 97 34 93 30C89 26 80 30 66 43H81Z" fill="#FFE083"/>
  <circle cx="101" cy="24" r="4" fill="#F7C948"/>
  <circle cx="27" cy="20" r="3" fill="#8B5CF6"/>
  <circle cx="108" cy="82" r="3" fill="#FFE083"/>
  <defs>
    <linearGradient id="paint0_linear" x1="20" y1="50" x2="111" y2="109" gradientUnits="userSpaceOnUse">
      <stop stop-color="#3B82F6"/>
      <stop offset="1" stop-color="#5B21B6"/>
    </linearGradient>
    <linearGradient id="paint1_linear" x1="16" y1="37" x2="105" y2="60" gradientUnits="userSpaceOnUse">
      <stop stop-color="#8B5CF6"/>
      <stop offset="1" stop-color="#3B82F6"/>
    </linearGradient>
  </defs>
</svg>
